<?xml version="1.0" encoding="UTF-8"?>

<svg version="1.2" baseProfile="tiny" viewBox="0 0 42000 29700" preserveAspectRatio="xMidYMid" fill-rule="evenodd" clip-path="url(#presentation_clip_path)" stroke-width="28.222" stroke-linejoin="round" xmlns="http://www.w3.org/2000/svg" xmlns:xlink="http://www.w3.org/1999/xlink" xmlns:draw="urn:oasis:names:tc:opendocument:xmlns:drawing:1.0" xmlns:presentation="urn:oasis:names:tc:opendocument:xmlns:presentation:1.0" xmlns:smil="urn:oasis:names:tc:opendocument:xmlns:smil-compatible:1.0" xmlns:anim="urn:oasis:names:tc:opendocument:xmlns:animation:1.0" xml:space="preserve">
 <defs>
  <clipPath id="presentation_clip_path" clipPathUnits="userSpaceOnUse">
   <rect x="0" y="0" width="42000" height="29700"/>
  </clipPath>
 </defs>
 <g id="id2" class="Master_Slide" clip-path="url(#presentation_clip_path)">
  <g id="bg-id2" visibility="visible" class="Background">
   <rect fill="none" stroke="none" x="0" y="0" width="42000" height="29700"/>
  </g>
  <g id="bo-id2" visibility="visible" class="BackgroundObjects"/>
 </g>
 <g id="id1" class="Slide" visibility="visible" clip-path="url(#presentation_clip_path)">
  <g class="com.sun.star.drawing.PolyPolygonShape">
   <g>
    <path fill="none" stroke="rgb(0,0,0)" d="M 1465,4538 L 1554,4875 1770,5168 2196,5461 2644,5661 3277,5860 4029,6030 4895,6171 5865,6285 6934,6374 8093,6438 9335,6480 10653,6500 12039,6500 13486,6481 14986,6446 16532,6394 19733,6248 23028,6056 26359,5828 29666,5575 35970,5039 41465,4538 35970,4003 29666,3443 26359,3181 23028,2946 19733,2750 16532,2603 14986,2552 13486,2517 12039,2500 10653,2502 9335,2525 8093,2570 6934,2639 5865,2732 4895,2851 4029,2998 3277,3174 2644,3381 2200,3600 1770,3891 1577,4200 1465,4538"/>
   </g>
  </g>
 </g>
</svg>