<?xml version="1.0" encoding="UTF-8"?>
<!DOCTYPE svg PUBLIC "-//W3C//DTD SVG 1.1//EN" "http://www.w3.org/Graphics/SVG/1.1/DTD/svg11.dtd"><svg version="1.1" viewBox="0 0 21000 29700" preserveAspectRatio="xMidYMid" fill-rule="evenodd" xmlns="http://www.w3.org/2000/svg" xmlns:xlink="http://www.w3.org/1999/xlink"><g visibility="visible" id="Default"><desc>Master slide</desc><g style="stroke:none;fill:none"><rect x="-14" y="-14" width="21030" height="29730"/></g></g><g visibility="visible" id="page1"><desc>Slide</desc><g><desc>Drawing</desc><g><g style="stroke:rgb(0,0,0);fill:none"><path style="fill:none" d="M  0,500  9,499  19,499  29,499  39,498  49,497  59,496  69,495  79,493  89,491  99,490  109,487  118,485  128,483  138,480  147,477  157,474  166,471  176,467  185,464  194,460  203,456  212,452  221,448  230,443  239,438  248,433  257,428  265,423  274,418  282,412  290,406  298,401  306,394  314,388  322,382  329,375  337,369  344,362  351,355  358,348  365,341  372,333  378,326  385,318  391,310  397,302  403,294  409,286  415,278  420,270  426,261  431,253  436,244  440,235  445,226  450,217  454,208  458,199  462,190  466,181  469,171  472,162  476,152  479,143  481,133  484,124  486,114  488,104  490,94  492,84  494,75  495,65  496,55  497,45  498,35  499,25  499,15  499,5  499,-4  499,-14  499,-24  498,-34  498,-44  497,-54  495,-64  494,-74  492,-84  491,-94  489,-103  486,-113  484,-123  481,-132  479,-142  476,-152  473,-161  469,-171  466,-180  462,-189  458,-198  454,-208  450,-217  445,-226  441,-234  436,-243  431,-252  426,-261  421,-269  415,-277  410,-286  404,-294  398,-302  392,-310  385,-317  379,-325  372,-333  366,-340  359,-347  352,-354  345,-361  337,-368  330,-375  322,-381  315,-388  307,-394  299,-400  291,-406  282,-412  274,-417  266,-423  257,-428  249,-433  240,-438  231,-443  222,-447  213,-452  204,-456  195,-460  186,-464  176,-467  167,-471  158,-474  148,-477  138,-480  129,-482  119,-485  109,-487  100,-489  90,-491  80,-493  70,-494  60,-496  50,-497  40,-498  30,-499  20,-499  10,-499  0,-499  -9,-499  -19,-499  -29,-499  -39,-498  -49,-497  -59,-496  -68,-495  -78,-493  -88,-492  -98,-490  -108,-488  -118,-485  -127,-483  -137,-480  -146,-477  -156,-474  -165,-471  -175,-468  -184,-464  -193,-460  -203,-456  -212,-452  -221,-448  -230,-443  -239,-439  -247,-434  -256,-429  -264,-424  -273,-418  -281,-413  -289,-407  -297,-401  -305,-395  -313,-389  -321,-382  -329,-376  -336,-369  -343,-362  -351,-356  -358,-348  -365,-341  -371,-334  -378,-326  -384,-319  -391,-311  -397,-303  -403,-295  -409,-287  -414,-279  -420,-270  -425,-262  -430,-253  -435,-245  -440,-236  -445,-227  -449,-218  -453,-209  -458,-200  -461,-191  -465,-181  -469,-172  -472,-163  -475,-153  -478,-144  -481,-134  -484,-124  -486,-115  -488,-105  -490,-95  -492,-85  -494,-75  -495,-66  -496,-56  -497,-46  -498,-36  -499,-26  -499,-16  -499,-6  -499,3  -499,13  -499,23  -498,33  -498,43  -497,53  -495,63  -494,73  -492,83  -491,93  -489,103  -487,112  -484,122  -482,132  -479,141  -476,151  -473,160  -470,170  -466,179  -462,188  -459,198  -454,207  -450,216  -446,225  -441,234  -436,243  -432,251  -426,260  -421,268  -416,277  -410,285  -404,293  -398,301  -392,309  -386,317  -379,325  -373,332  -366,339  -359,347  -352,354  -345,361  -338,368  -330,374  -323,381  -315,387  -307,394  -299,400  -291,406  -283,411  -275,417  -266,422  -258,428  -249,433  -241,438  -232,442  -223,447  -214,451  -205,455  -196,459  -186,463  -177,467  -168,470  -158,474  -149,477  -139,480  -130,482  -120,485  -110,487  -100,489  -91,491  -81,493  -71,494  -61,496  -51,497  -41,498  -31,499  -21,499  -11,499  -1,499  0,500 "/></g><g/></g></g></g></svg>
