<?xml version="1.0" encoding="UTF-8"?>
<!DOCTYPE svg PUBLIC "-//W3C//DTD SVG 1.1//EN" "http://www.w3.org/Graphics/SVG/1.1/DTD/svg11.dtd"><svg version="1.1" viewBox="0 0 21000 29700" preserveAspectRatio="xMidYMid" fill-rule="evenodd" xmlns="http://www.w3.org/2000/svg" xmlns:xlink="http://www.w3.org/1999/xlink"><g visibility="visible" id="Default"><desc>Master slide</desc><g style="stroke:none;fill:none"><rect x="-14" y="-14" width="21030" height="29730"/></g></g><g visibility="visible" id="page1"><desc>Slide</desc><g><desc>Drawing</desc><g><g style="stroke:rgb(0,0,0);fill:none"><path style="fill:none" d="M  0,-329  7,-329  14,-330  22,-331  29,-332  37,-334  44,-336  51,-338  58,-341  65,-344  71,-347  78,-351  84,-355  90,-360  96,-364  102,-369  107,-374  112,-380  117,-386  122,-392  126,-398  130,-404  133,-411  136,-418  139,-425  142,-432  144,-439  146,-446  147,-453  148,-461  149,-468  149,-476  149,-483  149,-491  148,-498  147,-506  146,-513  144,-520  141,-527  139,-534  136,-541  133,-548  129,-555  125,-561  121,-567  116,-573  111,-579  106,-584  101,-590  95,-594  89,-599  83,-603  77,-607  70,-611  64,-615  57,-618  50,-620  43,-623  35,-625  28,-626  21,-627  13,-628  6,-629  -1,-629  -8,-629  -16,-628  -23,-627  -31,-626  -38,-624  -45,-622  -52,-619  -59,-617  -66,-613  -73,-610  -79,-606  -85,-602  -91,-598  -97,-593  -103,-588  -108,-583  -113,-577  -118,-571  -122,-565  -126,-559  -130,-552  -134,-546  -137,-539  -140,-532  -142,-525  -144,-518  -146,-511  -148,-503  -149,-496  -149,-488  -149,-481  -149,-473  -149,-466  -148,-458  -147,-451  -145,-444  -143,-436  -141,-429  -138,-422  -135,-415  -132,-409  -128,-402  -124,-396  -120,-390  -115,-384  -111,-378  -105,-373  -100,-367  -94,-363  -88,-358  -82,-354  -76,-350  -69,-346  -62,-343  -56,-340  -49,-337  -41,-335  -34,-333  -27,-331  -19,-330  -12,-329  -4,-329  0,-329 "/></g><g/></g></g><g><desc>Drawing</desc><g><g style="stroke:rgb(0,0,0);fill:none"><path style="fill:none" d="M  138,-57  143,-43  147,-28  149,-13  149,1  149,16  146,30  142,45  137,59  131,72  123,85  114,97  103,108  92,118  80,126  67,134  53,140  39,144  24,148  9,149  -5,149  -20,148  -35,145  -49,141  -63,135  -76,128  -89,120  -100,111  -111,100  -120,88  -129,76  -136,63  -141,49  -145,34  -148,20  -149,5  -149,-9  -147,-24  -127,-78  -127,-78  -125,-93  -123,-108  -124,-123  -125,-137  -128,-152  -133,-166  -139,-180  -147,-193  -155,-205  -165,-217  -176,-227  -188,-236  -200,-244  -214,-251  -228,-256  -243,-260  -257,-262  -272,-263  -287,-262  -302,-260  -317,-256  -331,-251  -344,-245  -357,-237  -369,-228  -371,-227  -371,-227  -383,-218  -395,-210  -409,-203  -423,-198  -437,-194  -452,-192  -467,-191  -482,-192  -497,-194  -511,-197  -526,-202  -539,-209  -552,-217  -564,-226  -575,-236  -585,-247  -594,-259  -601,-272  -608,-286  -612,-300  -616,-315  -618,-329  -618,-344  -617,-359  -614,-374  -610,-389  -605,-402  -598,-416  -590,-428  -581,-440  -570,-451  -559,-461  -546,-469  -533,-476  -519,-482  -505,-486  -490,-489  -433,-487  -433,-487  -418,-489  -404,-492  -389,-497  -376,-503  -363,-511  -351,-520  -340,-530  -329,-541  -320,-553  -313,-566  -306,-579  -301,-593  -298,-608  -295,-623  -295,-638  -296,-653  -298,-667  -302,-682  -307,-696  -314,-709  -322,-722  -331,-734  -341,-745  -353,-755  -365,-763  -366,-764  -366,-764  -379,-773  -390,-782  -401,-793  -410,-805  -418,-818  -425,-831  -430,-845  -434,-859  -437,-874  -438,-889  -438,-904  -436,-919  -432,-934  -427,-948  -421,-961  -414,-974  -405,-986  -395,-998  -384,-1008  -372,-1017  -359,-1024  -345,-1031  -331,-1036  -317,-1039  -302,-1042  -287,-1042  -272,-1041  -257,-1039  -243,-1035  -229,-1030  -215,-1023  -202,-1015  -191,-1006  -180,-996  -170,-984  -161,-972  -154,-959  -139,-904  -139,-904  -132,-890  -124,-878  -115,-866  -105,-855  -94,-845  -82,-836  -69,-828  -55,-822  -41,-817  -27,-814  -12,-812  2,-811  17,-812  32,-815  46,-819  60,-825  74,-831  86,-839  98,-849  109,-859  119,-871  127,-883  134,-896  140,-910  144,-924  145,-926  145,-926  149,-941  155,-955  162,-968  170,-980  180,-992  190,-1003  202,-1012  214,-1020  228,-1027  241,-1033  256,-1037  271,-1040  285,-1041  300,-1041  315,-1039  330,-1036  344,-1031  358,-1025  371,-1018  383,-1009  395,-1000  405,-989  414,-977  422,-964  429,-951  434,-937  438,-922  440,-907  441,-892  440,-877  438,-862  434,-848  429,-834  423,-820  415,-807  406,-795  396,-784  348,-753  348,-753  337,-742  327,-731  319,-719  311,-706  305,-692  301,-678  298,-663  296,-648  296,-633  297,-618  300,-604  304,-589  310,-575  317,-562  325,-550  334,-538  345,-527  357,-518  369,-510  382,-503  396,-497  411,-493  425,-490  440,-489  455,-489  457,-489  457,-489  472,-490  487,-489  502,-486  516,-482  530,-476  544,-470  556,-462  568,-452  579,-442  589,-430  597,-418  604,-405  610,-391  614,-377  617,-362  619,-347  619,-332  617,-317  614,-302  610,-288  604,-274  597,-261  588,-249  579,-237  568,-227  556,-218  544,-209  530,-203  516,-197  502,-193  487,-191  472,-190  457,-190  442,-192  428,-195  413,-200  400,-207  355,-242  355,-242  342,-249  328,-255  314,-260  299,-263  284,-264  269,-264  254,-263  240,-260  225,-255  211,-249  198,-242  186,-234  174,-224  164,-213  155,-202  147,-189  140,-176  134,-162  130,-147  128,-132  127,-117  127,-102  129,-88  132,-73  137,-59  138,-57  138,-57 "/></g><g/></g></g></g></svg>