<?xml version="1.0" encoding="UTF-8"?>
<!DOCTYPE svg PUBLIC "-//W3C//DTD SVG 1.1//EN" "http://www.w3.org/Graphics/SVG/1.1/DTD/svg11.dtd"><svg version="1.1" viewBox="0 0 21000 29700" preserveAspectRatio="xMidYMid" fill-rule="evenodd" xmlns="http://www.w3.org/2000/svg" xmlns:xlink="http://www.w3.org/1999/xlink"><g visibility="visible" id="Default"><desc>Master slide</desc><g style="stroke:none;fill:none"><rect x="-14" y="-14" width="21030" height="29730"/></g></g><g visibility="visible" id="page1"><desc>Slide</desc><g><desc>Drawing</desc><g><g style="stroke:rgb(0,0,0);fill:none"><path style="fill:none" d="M  0,4000  79,3999  159,3996  239,3992  319,3987  399,3980  478,3971  558,3960  637,3948  716,3935  794,3920  872,3903  950,3885  1028,3865  1105,3844  1182,3821  1258,3796  1333,3771  1409,3743  1483,3714  1557,3684  1631,3652  1703,3619  1775,3584  1847,3547  1917,3510  1987,3471  2056,3430  2124,3389  2192,3345  2258,3301  2324,3255  2388,3208  2452,3159  2515,3110  2576,3059  2637,3007  2697,2953  2755,2899  2813,2843  2869,2786  2924,2728  2978,2669  3031,2609  3082,2548  3133,2486  3182,2423  3230,2359  3276,2294  3321,2228  3365,2161  3408,2093  3449,2024  3489,1955  3527,1885  3564,1814  3600,1742  3634,1670  3667,1597  3698,1523  3728,1449  3756,1374  3783,1299  3808,1223  3832,1146  3854,1069  3874,992  3893,915  3911,836  3927,758  3941,679  3954,600  3965,521  3975,442  3983,362  3989,282  3994,203  3998,123  3999,43  3999,-36  3998,-116  3995,-196  3990,-276  3984,-356  3976,-435  3966,-515  3955,-594  3942,-673  3928,-752  3912,-830  3895,-908  3876,-986  3855,-1063  3833,-1140  3810,-1217  3785,-1293  3758,-1368  3730,-1443  3700,-1517  3669,-1591  3637,-1664  3603,-1736  3567,-1808  3530,-1879  3492,-1949  3452,-2019  3411,-2088  3369,-2155  3325,-2222  3280,-2288  3233,-2354  3186,-2418  3137,-2481  3087,-2543  3035,-2604  2982,-2665  2928,-2724  2873,-2782  2817,-2839  2760,-2894  2701,-2949  2642,-3003  2581,-3055  2520,-3106  2457,-3156  2393,-3204  2329,-3251  2263,-3297  2197,-3342  2130,-3385  2062,-3427  1993,-3468  1923,-3507  1852,-3545  1781,-3581  1709,-3616  1636,-3649  1563,-3681  1489,-3712  1415,-3741  1339,-3768  1264,-3794  1188,-3819  1111,-3842  1034,-3863  956,-3883  879,-3902  800,-3918  722,-3934  643,-3947  564,-3959  485,-3970  405,-3979  326,-3986  246,-3992  166,-3996  86,-3999  6,-3999  -73,-3999  -153,-3997  -233,-3993  -313,-3987  -392,-3980  -472,-3971  -551,-3961  -630,-3949  -709,-3936  -788,-3921  -866,-3904  -944,-3886  -1022,-3867  -1099,-3845  -1175,-3823  -1252,-3798  -1327,-3773  -1403,-3745  -1477,-3717  -1551,-3686  -1625,-3654  -1697,-3621  -1770,-3587  -1841,-3550  -1912,-3513  -1981,-3474  -2051,-3434  -2119,-3392  -2186,-3349  -2253,-3304  -2318,-3259  -2383,-3212  -2447,-3163  -2510,-3114  -2571,-3063  -2632,-3011  -2692,-2958  -2751,-2903  -2808,-2848  -2864,-2791  -2920,-2733  -2974,-2674  -3027,-2614  -3078,-2553  -3129,-2491  -3178,-2428  -3226,-2364  -3273,-2299  -3318,-2233  -3362,-2166  -3405,-2098  -3446,-2030  -3486,-1961  -3524,-1890  -3561,-1820  -3597,-1748  -3631,-1676  -3664,-1603  -3695,-1529  -3725,-1455  -3754,-1380  -3781,-1305  -3806,-1229  -3830,-1152  -3852,-1076  -3873,-998  -3892,-921  -3910,-843  -3926,-764  -3940,-686  -3953,-607  -3964,-528  -3974,-448  -3982,-369  -3989,-289  -3994,-209  -3997,-129  -3999,-49  -3999,30  -3998,110  -3995,190  -3990,270  -3984,349  -3976,429  -3967,509  -3956,588  -3943,667  -3929,746  -3914,824  -3896,902  -3878,980  -3857,1057  -3835,1134  -3812,1211  -3787,1287  -3760,1362  -3732,1437  -3703,1511  -3672,1585  -3639,1658  -3605,1731  -3570,1803  -3533,1874  -3495,1944  -3456,2013  -3415,2082  -3372,2150  -3329,2217  -3284,2283  -3237,2348  -3190,2413  -3141,2476  -3091,2538  -3039,2600  -2987,2660  -2933,2719  -2878,2777  -2822,2834  -2764,2890  -2706,2945  -2647,2998  -2586,3051  -2525,3102  -2462,3152  -2398,3200  -2334,3248  -2269,3294  -2202,3338  -2135,3382  -2067,3424  -1998,3464  -1928,3504  -1858,3542  -1787,3578  -1715,3613  -1642,3647  -1569,3679  -1495,3709  -1421,3739  -1345,3766  -1270,3792  -1194,3817  -1117,3840  -1040,3862  -963,3882  -885,3900  -807,3917  -728,3933  -649,3946  -570,3959  -491,3969  -412,3978  -332,3986  -252,3992  -172,3996  -92,3998  -12,3999  0,4000 "/></g><g/></g></g><g><desc>Drawing</desc><g><g style="stroke:rgb(0,0,0);fill:none"><path style="fill:none" d="M  0,3500  69,3499  139,3497  209,3493  279,3488  349,3482  418,3474  488,3465  557,3455  626,3443  695,3430  763,3415  831,3399  899,3382  967,3363  1034,3343  1100,3322  1167,3299  1232,3275  1298,3250  1362,3223  1427,3195  1490,3166  1553,3136  1616,3104  1677,3071  1739,3037  1799,3001  1859,2965  1918,2927  1976,2888  2033,2848  2090,2807  2145,2764  2200,2721  2254,2676  2307,2631  2360,2584  2411,2536  2461,2488  2510,2438  2559,2387  2606,2336  2652,2283  2697,2230  2741,2175  2784,2120  2826,2064  2867,2007  2906,1949  2945,1891  2982,1831  3018,1771  3053,1711  3086,1649  3119,1587  3150,1524  3180,1461  3208,1397  3236,1333  3262,1268  3286,1202  3310,1136  3332,1070  3353,1003  3372,936  3390,868  3407,800  3422,732  3436,663  3449,594  3460,525  3470,456  3478,386  3485,317  3491,247  3495,177  3498,107  3499,37  3499,-32  3498,-102  3495,-172  3491,-242  3486,-311  3479,-381  3470,-450  3461,-520  3450,-589  3437,-658  3423,-726  3408,-795  3391,-863  3373,-930  3354,-998  3334,-1065  3312,-1131  3288,-1197  3264,-1263  3238,-1328  3211,-1392  3182,-1456  3152,-1519  3121,-1582  3089,-1644  3055,-1706  3021,-1766  2985,-1827  2948,-1886  2909,-1944  2870,-2002  2829,-2059  2787,-2115  2745,-2171  2701,-2225  2656,-2279  2609,-2331  2562,-2383  2514,-2434  2465,-2484  2415,-2533  2364,-2580  2312,-2627  2259,-2673  2205,-2717  2150,-2761  2094,-2804  2038,-2845  1980,-2885  1922,-2924  1863,-2962  1804,-2999  1743,-3034  1682,-3068  1621,-3101  1558,-3133  1495,-3164  1432,-3193  1368,-3221  1303,-3248  1238,-3273  1172,-3297  1106,-3320  1039,-3342  972,-3362  905,-3380  837,-3398  769,-3414  700,-3429  632,-3442  563,-3454  493,-3464  424,-3474  354,-3481  285,-3488  215,-3493  145,-3496  75,-3499  5,-3499  -64,-3499  -134,-3497  -204,-3494  -274,-3489  -343,-3483  -413,-3475  -482,-3466  -552,-3456  -621,-3444  -689,-3431  -758,-3416  -826,-3401  -894,-3383  -961,-3365  -1028,-3345  -1095,-3324  -1161,-3301  -1227,-3277  -1293,-3252  -1357,-3225  -1422,-3198  -1485,-3169  -1548,-3138  -1611,-3107  -1673,-3074  -1734,-3040  -1794,-3004  -1854,-2968  -1913,-2930  -1971,-2891  -2029,-2851  -2085,-2810  -2141,-2768  -2196,-2725  -2250,-2680  -2303,-2634  -2355,-2588  -2407,-2540  -2457,-2492  -2506,-2442  -2555,-2391  -2602,-2340  -2648,-2287  -2694,-2234  -2738,-2179  -2781,-2124  -2823,-2068  -2863,-2011  -2903,-1954  -2942,-1895  -2979,-1836  -3015,-1776  -3050,-1715  -3084,-1654  -3116,-1592  -3147,-1529  -3177,-1466  -3206,-1402  -3233,-1338  -3260,-1273  -3284,-1207  -3308,-1142  -3330,-1075  -3351,-1008  -3370,-941  -3389,-874  -3405,-806  -3421,-737  -3435,-669  -3448,-600  -3459,-531  -3469,-462  -3477,-392  -3485,-322  -3490,-253  -3495,-183  -3498,-113  -3499,-43  -3499,26  -3498,96  -3496,166  -3492,236  -3486,306  -3479,375  -3471,445  -3461,514  -3450,583  -3438,652  -3424,721  -3409,789  -3393,857  -3375,925  -3356,992  -3335,1059  -3313,1126  -3290,1192  -3266,1257  -3240,1322  -3213,1387  -3184,1451  -3155,1514  -3124,1577  -3092,1639  -3058,1701  -3024,1762  -2988,1822  -2951,1881  -2912,1940  -2873,1998  -2833,2055  -2791,2111  -2748,2166  -2704,2221  -2659,2275  -2613,2327  -2566,2379  -2518,2430  -2469,2480  -2419,2529  -2368,2577  -2316,2623  -2263,2669  -2209,2714  -2154,2758  -2099,2800  -2042,2842  -1985,2882  -1927,2921  -1868,2959  -1809,2996  -1748,3031  -1687,3066  -1626,3099  -1563,3131  -1500,3161  -1437,3191  -1373,3219  -1308,3246  -1243,3271  -1177,3295  -1111,3318  -1044,3340  -977,3360  -910,3379  -842,3397  -774,3413  -706,3428  -637,3441  -568,3453  -499,3464  -430,3473  -360,3481  -290,3487  -221,3493  -151,3496  -81,3499  -11,3499  0,3500 "/></g><g/></g></g><g><desc>Drawing</desc><g><g style="stroke:rgb(0,0,0);fill:none"><path style="fill:none" d="M  0,3000  59,2999  119,2997  179,2994  239,2990  299,2985  359,2978  418,2970  477,2961  537,2951  596,2940  654,2927  713,2914  771,2899  829,2883  886,2866  943,2847  1000,2828  1056,2807  1112,2785  1168,2763  1223,2739  1277,2714  1331,2688  1385,2660  1438,2632  1490,2603  1542,2573  1593,2541  1644,2509  1693,2476  1743,2441  1791,2406  1839,2369  1886,2332  1932,2294  1978,2255  2022,2215  2066,2174  2109,2132  2152,2090  2193,2046  2233,2002  2273,1957  2312,1911  2349,1864  2386,1817  2422,1769  2457,1720  2491,1671  2524,1620  2556,1570  2587,1518  2617,1466  2645,1413  2673,1360  2700,1307  2725,1252  2750,1198  2773,1142  2796,1087  2817,1030  2837,974  2856,917  2874,860  2890,802  2906,744  2920,686  2933,627  2945,568  2956,509  2965,450  2974,391  2981,331  2987,272  2992,212  2996,152  2998,92  2999,32  2999,-27  2998,-87  2996,-147  2992,-207  2988,-267  2982,-326  2974,-386  2966,-445  2957,-505  2946,-564  2934,-623  2921,-681  2907,-739  2891,-797  2875,-855  2857,-912  2838,-969  2818,-1026  2797,-1082  2775,-1138  2752,-1193  2727,-1248  2702,-1302  2675,-1356  2648,-1409  2619,-1462  2589,-1514  2558,-1566  2526,-1616  2494,-1667  2460,-1716  2425,-1765  2389,-1813  2352,-1861  2315,-1907  2276,-1953  2237,-1998  2196,-2043  2155,-2086  2113,-2129  2070,-2171  2026,-2212  1981,-2252  1936,-2291  1890,-2329  1843,-2367  1795,-2403  1746,-2438  1697,-2473  1648,-2506  1597,-2539  1546,-2570  1494,-2601  1442,-2630  1389,-2658  1336,-2686  1282,-2712  1227,-2737  1172,-2761  1117,-2784  1061,-2806  1004,-2826  948,-2846  891,-2864  833,-2881  775,-2897  717,-2912  659,-2926  600,-2939  541,-2950  482,-2960  423,-2969  363,-2977  304,-2984  244,-2990  184,-2994  124,-2997  64,-2999  4,-2999  -55,-2999  -115,-2997  -175,-2994  -234,-2990  -294,-2985  -354,-2978  -413,-2971  -473,-2962  -532,-2952  -591,-2941  -650,-2928  -708,-2915  -766,-2900  -824,-2884  -881,-2867  -939,-2849  -995,-2829  -1052,-2809  -1108,-2787  -1163,-2765  -1218,-2741  -1273,-2716  -1327,-2690  -1381,-2663  -1434,-2635  -1486,-2605  -1538,-2575  -1589,-2544  -1640,-2512  -1689,-2478  -1739,-2444  -1787,-2409  -1835,-2372  -1882,-2335  -1928,-2297  -1974,-2258  -2019,-2218  -2063,-2177  -2106,-2136  -2148,-2093  -2190,-2050  -2230,-2005  -2270,-1960  -2309,-1915  -2347,-1868  -2383,-1821  -2419,-1773  -2454,-1724  -2488,-1675  -2521,-1624  -2553,-1574  -2584,-1522  -2614,-1470  -2643,-1418  -2671,-1365  -2698,-1311  -2723,-1257  -2748,-1202  -2771,-1147  -2794,-1091  -2815,-1035  -2835,-978  -2854,-921  -2872,-864  -2889,-807  -2904,-749  -2919,-690  -2932,-632  -2944,-573  -2955,-514  -2965,-455  -2973,-396  -2981,-336  -2987,-276  -2992,-216  -2995,-157  -2998,-97  -2999,-37  -2999,22  -2998,82  -2996,142  -2993,202  -2988,262  -2982,322  -2975,381  -2967,441  -2957,500  -2947,559  -2935,618  -2922,676  -2908,735  -2893,793  -2876,850  -2859,908  -2840,965  -2820,1021  -2799,1078  -2777,1133  -2754,1189  -2729,1244  -2704,1298  -2677,1352  -2650,1405  -2621,1458  -2592,1510  -2561,1561  -2529,1612  -2496,1663  -2463,1712  -2428,1761  -2392,1809  -2355,1857  -2318,1904  -2279,1950  -2240,1995  -2199,2039  -2158,2083  -2116,2126  -2073,2167  -2029,2208  -1985,2249  -1939,2288  -1893,2326  -1846,2364  -1799,2400  -1750,2436  -1701,2470  -1652,2504  -1601,2536  -1550,2568  -1498,2598  -1446,2628  -1393,2656  -1340,2683  -1286,2710  -1232,2735  -1177,2759  -1121,2782  -1065,2804  -1009,2825  -952,2844  -895,2863  -838,2880  -780,2896  -722,2911  -664,2925  -605,2938  -546,2949  -487,2960  -428,2969  -368,2977  -309,2984  -249,2989  -189,2994  -129,2997  -69,2999  -9,2999  0,3000 "/></g><g/></g></g><g><desc>Drawing</desc><g><g style="stroke:rgb(0,0,0);fill:none"><path style="fill:none" d="M  0,2500  49,2499  99,2498  149,2495  199,2492  249,2487  299,2482  348,2475  398,2468  447,2459  496,2450  545,2439  594,2428  642,2415  690,2402  738,2388  786,2373  833,2356  880,2339  927,2321  973,2302  1019,2282  1064,2261  1109,2240  1154,2217  1198,2193  1242,2169  1285,2144  1327,2118  1370,2091  1411,2063  1452,2034  1492,2005  1532,1974  1571,1943  1610,1912  1648,1879  1685,1846  1722,1812  1758,1777  1793,1741  1827,1705  1861,1668  1894,1631  1926,1592  1958,1554  1989,1514  2018,1474  2047,1433  2076,1392  2103,1350  2130,1308  2156,1265  2180,1222  2204,1178  2228,1133  2250,1089  2271,1043  2292,998  2311,952  2330,905  2347,859  2364,811  2380,764  2395,716  2408,668  2421,620  2433,571  2444,523  2454,474  2463,424  2471,375  2478,326  2484,276  2489,226  2493,176  2496,126  2498,76  2499,26  2499,-23  2498,-72  2496,-122  2494,-172  2490,-222  2485,-272  2479,-322  2472,-371  2464,-420  2455,-470  2445,-519  2434,-568  2422,-616  2409,-664  2396,-712  2381,-760  2365,-808  2349,-855  2331,-902  2313,-948  2293,-994  2273,-1040  2251,-1085  2229,-1130  2206,-1174  2182,-1218  2158,-1262  2132,-1305  2105,-1347  2078,-1389  2050,-1430  2021,-1471  1991,-1511  1960,-1550  1929,-1589  1897,-1628  1864,-1665  1830,-1702  1796,-1738  1761,-1774  1725,-1809  1688,-1843  1651,-1876  1613,-1909  1575,-1941  1535,-1972  1496,-2002  1455,-2032  1414,-2061  1373,-2088  1331,-2116  1288,-2142  1245,-2167  1202,-2192  1157,-2215  1113,-2238  1068,-2260  1023,-2281  977,-2301  930,-2320  884,-2338  837,-2355  790,-2371  742,-2387  694,-2401  646,-2414  598,-2427  549,-2438  500,-2449  451,-2458  402,-2467  352,-2474  303,-2481  253,-2487  203,-2491  153,-2495  103,-2497  53,-2499  3,-2499  -46,-2499  -95,-2498  -145,-2495  -195,-2492  -245,-2487  -295,-2482  -344,-2476  -394,-2468  -443,-2460  -492,-2450  -541,-2440  -590,-2429  -638,-2416  -687,-2403  -734,-2389  -782,-2374  -829,-2358  -876,-2341  -923,-2323  -969,-2304  -1015,-2284  -1061,-2263  -1106,-2241  -1150,-2219  -1195,-2195  -1238,-2171  -1281,-2146  -1324,-2120  -1366,-2093  -1408,-2065  -1449,-2037  -1489,-2007  -1529,-1977  -1568,-1946  -1607,-1914  -1645,-1882  -1682,-1848  -1719,-1814  -1755,-1780  -1790,-1744  -1825,-1708  -1858,-1671  -1892,-1634  -1924,-1595  -1955,-1557  -1986,-1517  -2016,-1477  -2045,-1437  -2074,-1395  -2101,-1354  -2128,-1311  -2153,-1268  -2178,-1225  -2203,-1181  -2226,-1137  -2248,-1092  -2269,-1047  -2290,-1001  -2309,-955  -2328,-909  -2346,-862  -2363,-815  -2379,-768  -2393,-720  -2407,-672  -2420,-624  -2432,-575  -2443,-526  -2453,-478  -2462,-428  -2471,-379  -2478,-330  -2484,-280  -2489,-230  -2493,-180  -2496,-130  -2498,-80  -2499,-30  -2499,19  -2499,69  -2497,118  -2494,168  -2490,218  -2485,268  -2479,318  -2472,367  -2464,417  -2456,466  -2446,515  -2435,564  -2423,612  -2411,661  -2397,709  -2382,756  -2367,804  -2350,851  -2332,898  -2314,944  -2295,991  -2274,1036  -2253,1082  -2231,1126  -2208,1171  -2184,1215  -2160,1258  -2134,1301  -2107,1344  -2080,1385  -2052,1427  -2023,1468  -1993,1508  -1963,1547  -1931,1586  -1899,1625  -1866,1662  -1833,1699  -1798,1736  -1763,1771  -1728,1806  -1691,1840  -1654,1874  -1616,1906  -1578,1938  -1539,1970  -1499,2000  -1459,2030  -1418,2058  -1376,2086  -1334,2113  -1292,2140  -1249,2165  -1205,2190  -1161,2213  -1117,2236  -1072,2258  -1026,2279  -980,2299  -934,2318  -888,2336  -841,2354  -793,2370  -746,2385  -698,2400  -650,2413  -601,2426  -553,2437  -504,2448  -455,2458  -406,2466  -356,2474  -307,2481  -257,2486  -207,2491  -157,2495  -107,2497  -57,2499  -7,2499  0,2500 "/></g><g/></g></g><g><desc>Drawing</desc><g><g style="stroke:rgb(0,0,0);fill:none"><path style="fill:none" d="M  0,2000  39,1999  79,1998  119,1996  159,1993  199,1990  239,1985  279,1980  318,1974  358,1967  397,1960  436,1951  475,1942  514,1932  552,1922  591,1910  629,1898  666,1885  704,1871  741,1857  778,1842  815,1826  851,1809  887,1792  923,1773  958,1755  993,1735  1028,1715  1062,1694  1096,1672  1129,1650  1162,1627  1194,1604  1226,1579  1257,1555  1288,1529  1318,1503  1348,1476  1377,1449  1406,1421  1434,1393  1462,1364  1489,1334  1515,1304  1541,1274  1566,1243  1591,1211  1615,1179  1638,1147  1660,1114  1682,1080  1704,1046  1724,1012  1744,977  1763,942  1782,907  1800,871  1817,835  1833,798  1849,761  1864,724  1878,687  1891,649  1904,611  1916,573  1927,534  1937,496  1946,457  1955,418  1963,379  1970,339  1977,300  1982,260  1987,221  1991,181  1994,141  1997,101  1999,61  1999,21  1999,-18  1999,-58  1997,-98  1995,-138  1992,-178  1988,-217  1983,-257  1977,-297  1971,-336  1964,-376  1956,-415  1947,-454  1938,-493  1927,-531  1916,-570  1905,-608  1892,-646  1879,-684  1865,-721  1850,-758  1834,-795  1818,-832  1801,-868  1783,-904  1765,-939  1746,-974  1726,-1009  1705,-1044  1684,-1077  1662,-1111  1640,-1144  1616,-1177  1593,-1209  1568,-1240  1543,-1271  1517,-1302  1491,-1332  1464,-1362  1436,-1391  1408,-1419  1380,-1447  1350,-1474  1321,-1501  1290,-1527  1260,-1553  1228,-1578  1196,-1602  1164,-1625  1131,-1648  1098,-1671  1065,-1692  1031,-1713  996,-1734  961,-1753  926,-1772  890,-1790  854,-1808  818,-1824  781,-1840  744,-1856  707,-1870  669,-1884  632,-1897  594,-1909  555,-1921  517,-1931  478,-1941  439,-1951  400,-1959  361,-1967  321,-1973  282,-1979  242,-1985  202,-1989  163,-1993  123,-1996  83,-1998  43,-1999  3,-1999  -36,-1999  -76,-1998  -116,-1996  -156,-1993  -196,-1990  -236,-1985  -275,-1980  -315,-1974  -354,-1968  -394,-1960  -433,-1952  -472,-1943  -511,-1933  -549,-1922  -587,-1911  -626,-1899  -663,-1886  -701,-1872  -738,-1858  -775,-1843  -812,-1827  -848,-1810  -885,-1793  -920,-1775  -956,-1756  -990,-1737  -1025,-1717  -1059,-1696  -1093,-1674  -1126,-1652  -1159,-1629  -1191,-1606  -1223,-1581  -1255,-1557  -1285,-1531  -1316,-1505  -1346,-1479  -1375,-1451  -1404,-1424  -1432,-1395  -1460,-1366  -1487,-1337  -1513,-1307  -1539,-1276  -1564,-1245  -1589,-1214  -1613,-1182  -1636,-1149  -1659,-1116  -1681,-1083  -1702,-1049  -1723,-1015  -1743,-980  -1762,-945  -1780,-910  -1798,-874  -1815,-838  -1832,-801  -1847,-764  -1862,-727  -1877,-690  -1890,-652  -1903,-614  -1915,-576  -1926,-538  -1936,-499  -1946,-460  -1955,-421  -1963,-382  -1970,-343  -1976,-303  -1982,-264  -1987,-224  -1991,-184  -1994,-144  -1997,-104  -1998,-64  -1999,-24  -1999,15  -1999,55  -1997,95  -1995,135  -1992,174  -1988,214  -1983,254  -1978,294  -1971,333  -1964,373  -1957,412  -1948,451  -1939,490  -1928,528  -1917,567  -1906,605  -1893,643  -1880,681  -1866,718  -1851,755  -1836,792  -1819,829  -1802,865  -1785,901  -1766,937  -1747,972  -1728,1006  -1707,1041  -1686,1075  -1664,1108  -1642,1141  -1618,1174  -1595,1206  -1570,1238  -1545,1269  -1519,1300  -1493,1330  -1466,1359  -1439,1388  -1411,1417  -1382,1445  -1353,1472  -1323,1499  -1293,1525  -1262,1551  -1231,1576  -1199,1600  -1167,1624  -1134,1647  -1101,1669  -1067,1691  -1033,1712  -999,1732  -964,1752  -929,1771  -893,1789  -857,1806  -821,1823  -784,1839  -747,1854  -710,1869  -672,1883  -635,1896  -597,1908  -558,1920  -520,1931  -481,1941  -442,1950  -403,1958  -364,1966  -324,1973  -285,1979  -245,1984  -206,1989  -166,1993  -126,1996  -86,1998  -46,1999  -6,1999  0,2000 "/></g><g/></g></g><g><desc>Drawing</desc><g><g style="stroke:rgb(0,0,0);fill:none"><path style="fill:none" d="M  0,1500  29,1499  59,1498  89,1497  119,1495  149,1492  179,1489  209,1485  238,1480  268,1475  298,1470  327,1463  356,1457  385,1449  414,1441  443,1433  471,1423  500,1414  528,1403  556,1392  584,1381  611,1369  638,1357  665,1344  692,1330  719,1316  745,1301  771,1286  796,1270  822,1254  846,1238  871,1220  895,1203  919,1184  943,1166  966,1147  989,1127  1011,1107  1033,1087  1054,1066  1076,1045  1096,1023  1116,1001  1136,978  1156,955  1174,932  1193,908  1211,884  1228,860  1245,835  1262,810  1278,785  1293,759  1308,733  1322,706  1336,680  1350,653  1362,626  1375,599  1386,571  1398,543  1408,515  1418,487  1428,458  1437,430  1445,401  1453,372  1460,343  1466,313  1472,284  1478,254  1482,225  1487,195  1490,165  1493,136  1496,106  1498,76  1499,46  1499,16  1499,-13  1499,-43  1498,-73  1496,-103  1494,-133  1491,-163  1487,-193  1483,-222  1478,-252  1473,-282  1467,-311  1460,-340  1453,-369  1445,-398  1437,-427  1428,-456  1419,-484  1409,-513  1398,-541  1387,-569  1376,-596  1363,-624  1351,-651  1337,-678  1324,-704  1309,-731  1294,-757  1279,-783  1263,-808  1247,-833  1230,-858  1212,-882  1194,-906  1176,-930  1157,-953  1138,-976  1118,-999  1098,-1021  1077,-1043  1056,-1064  1035,-1085  1013,-1106  990,-1126  968,-1145  945,-1164  921,-1183  897,-1201  873,-1219  848,-1236  824,-1253  798,-1269  773,-1285  747,-1300  721,-1315  694,-1329  668,-1343  641,-1356  613,-1368  586,-1380  558,-1392  530,-1403  502,-1413  474,-1423  445,-1432  416,-1440  387,-1448  358,-1456  329,-1463  300,-1469  270,-1475  241,-1480  211,-1484  181,-1488  152,-1492  122,-1495  92,-1497  62,-1498  32,-1499  2,-1499  -27,-1499  -57,-1498  -87,-1497  -117,-1495  -147,-1492  -177,-1489  -206,-1485  -236,-1481  -266,-1476  -295,-1470  -325,-1464  -354,-1457  -383,-1450  -412,-1442  -440,-1433  -469,-1424  -497,-1414  -526,-1404  -554,-1393  -581,-1382  -609,-1370  -636,-1358  -663,-1345  -690,-1331  -717,-1317  -743,-1302  -769,-1287  -794,-1272  -820,-1256  -844,-1239  -869,-1222  -893,-1204  -917,-1186  -941,-1167  -964,-1148  -987,-1129  -1009,-1109  -1031,-1088  -1053,-1068  -1074,-1046  -1095,-1025  -1115,-1002  -1135,-980  -1154,-957  -1173,-934  -1191,-910  -1209,-886  -1227,-862  -1244,-837  -1260,-812  -1276,-787  -1292,-761  -1307,-735  -1321,-709  -1335,-682  -1349,-655  -1361,-628  -1374,-601  -1385,-573  -1397,-545  -1407,-517  -1417,-489  -1427,-460  -1436,-432  -1444,-403  -1452,-374  -1459,-345  -1466,-316  -1472,-286  -1477,-257  -1482,-227  -1486,-198  -1490,-168  -1493,-138  -1496,-108  -1497,-78  -1499,-48  -1499,-18  -1499,11  -1499,41  -1498,71  -1496,101  -1494,131  -1491,161  -1487,190  -1483,220  -1478,250  -1473,279  -1467,309  -1461,338  -1454,367  -1446,396  -1438,425  -1429,454  -1420,482  -1410,510  -1399,539  -1388,566  -1377,594  -1364,622  -1352,649  -1338,676  -1325,702  -1310,729  -1296,755  -1280,780  -1264,806  -1248,831  -1231,856  -1214,880  -1196,904  -1177,928  -1159,952  -1139,975  -1120,997  -1099,1019  -1079,1041  -1058,1063  -1036,1083  -1014,1104  -992,1124  -969,1144  -946,1163  -923,1182  -899,1200  -875,1218  -850,1235  -826,1252  -800,1268  -775,1284  -749,1299  -723,1314  -696,1328  -670,1341  -643,1355  -616,1367  -588,1379  -560,1391  -532,1402  -504,1412  -476,1422  -447,1431  -419,1440  -390,1448  -361,1455  -332,1462  -302,1469  -273,1474  -243,1480  -214,1484  -184,1488  -154,1492  -124,1494  -94,1497  -64,1498  -34,1499  -4,1499  0,1500 "/></g><g/></g></g><g><desc>Drawing</desc><g><g style="stroke:rgb(0,0,0);fill:none"><path style="fill:none" d="M  0,1250  24,1249  49,1249  74,1247  99,1246  124,1243  149,1241  174,1237  199,1234  223,1229  248,1225  272,1219  297,1214  321,1207  345,1201  369,1194  393,1186  416,1178  440,1169  463,1160  486,1151  509,1141  532,1130  554,1120  577,1108  599,1096  621,1084  642,1072  663,1059  685,1045  705,1031  726,1017  746,1002  766,987  785,971  805,956  824,939  842,923  861,906  879,888  896,870  913,852  930,834  947,815  963,796  979,777  994,757  1009,737  1023,716  1038,696  1051,675  1065,654  1078,632  1090,611  1102,589  1114,566  1125,544  1135,521  1146,499  1155,476  1165,452  1173,429  1182,405  1190,382  1197,358  1204,334  1210,310  1216,285  1222,261  1227,237  1231,212  1235,187  1239,163  1242,138  1244,113  1246,88  1248,63  1249,38  1249,13  1249,-11  1249,-36  1248,-61  1247,-86  1245,-111  1242,-136  1239,-161  1236,-185  1232,-210  1227,-235  1222,-259  1217,-284  1211,-308  1204,-332  1198,-356  1190,-380  1182,-404  1174,-427  1165,-451  1156,-474  1146,-497  1136,-520  1125,-542  1114,-565  1103,-587  1091,-609  1079,-631  1066,-652  1052,-673  1039,-694  1025,-715  1010,-735  995,-755  980,-775  964,-794  948,-814  932,-832  915,-851  898,-869  880,-887  862,-904  844,-921  825,-938  806,-954  787,-970  767,-986  748,-1001  727,-1016  707,-1030  686,-1044  665,-1058  644,-1071  622,-1083  601,-1096  578,-1107  556,-1119  534,-1130  511,-1140  488,-1150  465,-1160  442,-1169  418,-1177  395,-1185  371,-1193  347,-1200  323,-1207  299,-1213  274,-1219  250,-1224  225,-1229  201,-1233  176,-1237  151,-1240  126,-1243  101,-1245  76,-1247  51,-1248  26,-1249  1,-1249  -23,-1249  -47,-1249  -72,-1247  -97,-1246  -122,-1243  -147,-1241  -172,-1238  -197,-1234  -221,-1230  -246,-1225  -270,-1220  -295,-1214  -319,-1208  -343,-1201  -367,-1194  -391,-1187  -414,-1179  -438,-1170  -461,-1161  -484,-1152  -507,-1142  -530,-1131  -553,-1120  -575,-1109  -597,-1097  -619,-1085  -640,-1073  -662,-1060  -683,-1046  -704,-1032  -724,-1018  -744,-1003  -764,-988  -784,-973  -803,-957  -822,-941  -841,-924  -859,-907  -877,-890  -895,-872  -912,-854  -929,-835  -946,-817  -962,-797  -977,-778  -993,-758  -1008,-738  -1022,-718  -1037,-697  -1050,-677  -1064,-655  -1076,-634  -1089,-612  -1101,-590  -1113,-568  -1124,-546  -1134,-523  -1145,-500  -1154,-477  -1164,-454  -1173,-431  -1181,-407  -1189,-384  -1196,-360  -1203,-336  -1210,-312  -1216,-287  -1221,-263  -1226,-239  -1231,-214  -1235,-189  -1239,-165  -1242,-140  -1244,-115  -1246,-90  -1248,-65  -1249,-40  -1249,-15  -1249,9  -1249,34  -1248,59  -1247,84  -1245,109  -1242,134  -1239,159  -1236,183  -1232,208  -1228,233  -1223,257  -1217,282  -1211,306  -1205,330  -1198,354  -1191,378  -1183,402  -1175,425  -1166,449  -1157,472  -1147,495  -1137,518  -1126,541  -1115,563  -1104,585  -1092,607  -1080,629  -1067,650  -1053,672  -1040,692  -1026,713  -1011,734  -996,754  -981,773  -965,793  -949,812  -933,831  -916,849  -899,868  -881,885  -864,903  -845,920  -827,937  -808,953  -789,969  -769,985  -749,1000  -729,1015  -709,1029  -688,1043  -667,1056  -646,1070  -624,1082  -602,1095  -580,1106  -558,1118  -536,1129  -513,1139  -490,1149  -467,1159  -444,1168  -420,1177  -396,1185  -373,1192  -349,1200  -325,1206  -300,1213  -276,1218  -252,1224  -227,1229  -203,1233  -178,1237  -153,1240  -128,1243  -103,1245  -78,1247  -53,1248  -28,1249  -3,1249  0,1250 "/></g><g/></g></g><g><desc>Drawing</desc><g><g style="stroke:rgb(0,0,0);fill:none"><path style="fill:none" d="M  0,1000  19,999  39,999  59,998  79,996  99,995  119,992  139,990  159,987  179,983  198,980  218,975  237,971  257,966  276,961  295,955  314,949  333,942  352,935  370,928  389,921  407,913  425,904  443,896  461,886  479,877  496,867  514,857  531,847  548,836  564,825  581,813  597,802  613,789  628,777  644,764  659,751  674,738  688,724  703,710  717,696  731,682  744,667  757,652  770,637  783,621  795,605  807,589  819,573  830,557  841,540  852,523  862,506  872,488  881,471  891,453  900,435  908,417  916,399  924,380  932,362  939,343  945,324  952,305  958,286  963,267  968,248  973,228  977,209  981,189  985,169  988,150  991,130  993,110  995,90  997,70  998,50  999,30  999,10  999,-9  999,-29  998,-49  997,-69  996,-89  994,-108  991,-128  988,-148  985,-168  982,-188  978,-207  973,-227  969,-246  963,-265  958,-285  952,-304  946,-323  939,-342  932,-360  925,-379  917,-397  909,-416  900,-434  891,-452  882,-469  873,-487  863,-504  852,-522  842,-538  831,-555  820,-572  808,-588  796,-604  784,-620  771,-635  758,-651  745,-666  732,-681  718,-695  704,-709  690,-723  675,-737  660,-750  645,-763  630,-776  614,-789  598,-801  582,-812  565,-824  549,-835  532,-846  515,-856  498,-867  480,-876  463,-886  445,-895  427,-904  409,-912  390,-920  372,-928  353,-935  334,-942  316,-948  297,-954  277,-960  258,-965  239,-970  219,-975  200,-979  180,-983  160,-986  141,-989  121,-992  101,-994  81,-996  61,-998  41,-999  21,-999  1,-999  -18,-999  -38,-999  -58,-998  -78,-996  -98,-995  -118,-992  -137,-990  -157,-987  -177,-984  -197,-980  -216,-976  -236,-971  -255,-966  -274,-961  -293,-955  -313,-949  -331,-943  -350,-936  -369,-929  -387,-921  -406,-913  -424,-905  -442,-896  -460,-887  -478,-878  -495,-868  -512,-858  -529,-848  -546,-837  -563,-826  -579,-814  -595,-803  -611,-790  -627,-778  -642,-765  -658,-752  -673,-739  -687,-725  -702,-712  -716,-697  -730,-683  -743,-668  -756,-653  -769,-638  -782,-622  -794,-607  -806,-591  -818,-574  -829,-558  -840,-541  -851,-524  -861,-507  -871,-490  -881,-472  -890,-455  -899,-437  -907,-419  -916,-400  -923,-382  -931,-363  -938,-345  -945,-326  -951,-307  -957,-288  -963,-269  -968,-249  -973,-230  -977,-210  -981,-191  -985,-171  -988,-151  -991,-132  -993,-112  -995,-92  -997,-72  -998,-52  -999,-32  -999,-12  -999,7  -999,27  -998,47  -997,67  -996,87  -994,107  -991,127  -989,147  -985,166  -982,186  -978,206  -974,225  -969,245  -964,264  -958,283  -953,302  -946,321  -940,340  -933,359  -925,377  -918,396  -909,414  -901,432  -892,450  -883,468  -873,486  -864,503  -853,520  -843,537  -832,554  -821,570  -809,587  -797,603  -785,619  -772,634  -759,650  -746,665  -733,679  -719,694  -705,708  -691,722  -676,736  -661,749  -646,762  -631,775  -615,788  -599,800  -583,812  -567,823  -550,834  -533,845  -516,856  -499,866  -482,876  -464,885  -446,894  -428,903  -410,911  -392,919  -373,927  -355,934  -336,941  -317,948  -298,954  -279,960  -260,965  -240,970  -221,975  -201,979  -182,983  -162,986  -142,989  -122,992  -103,994  -83,996  -63,998  -43,999  -23,999  -3,999  0,1000 "/></g><g/></g></g><g><desc>Drawing</desc><g><g style="stroke:rgb(0,0,0);fill:none"><path style="fill:none" d="M  0,750  14,749  29,749  44,748  59,747  74,746  89,744  104,742  119,740  134,737  149,735  163,731  178,728  192,724  207,720  221,716  235,711  250,707  264,701  278,696  292,690  305,684  319,678  332,672  346,665  359,658  372,650  385,643  398,635  411,627  423,619  435,610  447,601  459,592  471,583  483,573  494,563  505,553  516,543  527,533  538,522  548,511  558,500  568,489  578,477  587,466  596,454  605,442  614,430  622,417  631,405  639,392  646,379  654,366  661,353  668,340  675,326  681,313  687,299  693,285  699,271  704,257  709,243  714,229  718,215  722,200  726,186  730,171  733,156  736,142  739,127  741,112  743,97  745,82  746,68  748,53  749,38  749,23  749,8  749,-6  749,-21  749,-36  748,-51  747,-66  745,-81  743,-96  741,-111  739,-126  736,-141  733,-155  730,-170  726,-184  722,-199  718,-213  714,-228  709,-242  704,-256  699,-270  693,-284  688,-298  681,-312  675,-325  668,-339  662,-352  654,-365  647,-378  639,-391  631,-404  623,-416  615,-429  606,-441  597,-453  588,-465  578,-476  569,-488  559,-499  549,-510  538,-521  528,-532  517,-542  506,-553  495,-563  484,-572  472,-582  460,-591  448,-600  436,-609  424,-618  412,-626  399,-634  386,-642  373,-650  360,-657  347,-664  334,-671  320,-678  306,-684  293,-690  279,-696  265,-701  251,-706  237,-711  222,-716  208,-720  193,-724  179,-728  164,-731  150,-734  135,-737  120,-740  105,-742  90,-744  76,-746  61,-747  46,-748  31,-749  16,-749  1,-749  -13,-749  -28,-749  -43,-748  -58,-747  -73,-746  -88,-744  -103,-742  -118,-740  -133,-738  -147,-735  -162,-732  -177,-728  -191,-725  -206,-721  -220,-716  -234,-712  -248,-707  -263,-702  -277,-696  -290,-691  -304,-685  -318,-679  -331,-672  -345,-665  -358,-658  -371,-651  -384,-643  -397,-636  -410,-628  -422,-619  -434,-611  -446,-602  -458,-593  -470,-583  -482,-574  -493,-564  -504,-554  -515,-544  -526,-534  -537,-523  -547,-512  -557,-501  -567,-490  -577,-478  -586,-467  -595,-455  -604,-443  -613,-431  -622,-418  -630,-406  -638,-393  -646,-380  -653,-367  -660,-354  -667,-341  -674,-327  -680,-314  -687,-300  -692,-286  -698,-272  -703,-258  -708,-244  -713,-230  -718,-216  -722,-201  -726,-187  -729,-172  -733,-158  -736,-143  -738,-128  -741,-113  -743,-99  -745,-84  -746,-69  -748,-54  -748,-39  -749,-24  -749,-9  -749,5  -749,20  -749,35  -748,50  -747,65  -745,80  -743,95  -741,110  -739,125  -736,139  -733,154  -730,169  -727,183  -723,198  -719,212  -714,227  -710,241  -705,255  -699,269  -694,283  -688,297  -682,311  -676,324  -669,338  -662,351  -655,364  -648,377  -640,390  -632,403  -624,415  -615,428  -607,440  -598,452  -588,464  -579,476  -569,487  -560,498  -549,509  -539,520  -529,531  -518,541  -507,552  -496,562  -484,572  -473,581  -461,591  -449,600  -437,609  -425,617  -413,626  -400,634  -387,642  -374,649  -361,657  -348,664  -335,670  -321,677  -308,683  -294,689  -280,695  -266,701  -252,706  -238,711  -223,715  -209,720  -195,724  -180,727  -166,731  -151,734  -136,737  -121,740  -107,742  -92,744  -77,746  -62,747  -47,748  -32,749  -17,749  -2,749  0,750 "/></g><g/></g></g><g><desc>Drawing</desc><g><g style="stroke:rgb(0,0,0);fill:none"><path style="fill:none" d="M  0,500  9,499  19,499  29,499  39,498  49,497  59,496  69,495  79,493  89,491  99,490  109,487  118,485  128,483  138,480  147,477  157,474  166,471  176,467  185,464  194,460  203,456  212,452  221,448  230,443  239,438  248,433  257,428  265,423  274,418  282,412  290,406  298,401  306,394  314,388  322,382  329,375  337,369  344,362  351,355  358,348  365,341  372,333  378,326  385,318  391,310  397,302  403,294  409,286  415,278  420,270  426,261  431,253  436,244  440,235  445,226  450,217  454,208  458,199  462,190  466,181  469,171  472,162  476,152  479,143  481,133  484,124  486,114  488,104  490,94  492,84  494,75  495,65  496,55  497,45  498,35  499,25  499,15  499,5  499,-4  499,-14  499,-24  498,-34  498,-44  497,-54  495,-64  494,-74  492,-84  491,-94  489,-103  486,-113  484,-123  481,-132  479,-142  476,-152  473,-161  469,-171  466,-180  462,-189  458,-198  454,-208  450,-217  445,-226  441,-234  436,-243  431,-252  426,-261  421,-269  415,-277  410,-286  404,-294  398,-302  392,-310  385,-317  379,-325  372,-333  366,-340  359,-347  352,-354  345,-361  337,-368  330,-375  322,-381  315,-388  307,-394  299,-400  291,-406  282,-412  274,-417  266,-423  257,-428  249,-433  240,-438  231,-443  222,-447  213,-452  204,-456  195,-460  186,-464  176,-467  167,-471  158,-474  148,-477  138,-480  129,-482  119,-485  109,-487  100,-489  90,-491  80,-493  70,-494  60,-496  50,-497  40,-498  30,-499  20,-499  10,-499  0,-499  -9,-499  -19,-499  -29,-499  -39,-498  -49,-497  -59,-496  -68,-495  -78,-493  -88,-492  -98,-490  -108,-488  -118,-485  -127,-483  -137,-480  -146,-477  -156,-474  -165,-471  -175,-468  -184,-464  -193,-460  -203,-456  -212,-452  -221,-448  -230,-443  -239,-439  -247,-434  -256,-429  -264,-424  -273,-418  -281,-413  -289,-407  -297,-401  -305,-395  -313,-389  -321,-382  -329,-376  -336,-369  -343,-362  -351,-356  -358,-348  -365,-341  -371,-334  -378,-326  -384,-319  -391,-311  -397,-303  -403,-295  -409,-287  -414,-279  -420,-270  -425,-262  -430,-253  -435,-245  -440,-236  -445,-227  -449,-218  -453,-209  -458,-200  -461,-191  -465,-181  -469,-172  -472,-163  -475,-153  -478,-144  -481,-134  -484,-124  -486,-115  -488,-105  -490,-95  -492,-85  -494,-75  -495,-66  -496,-56  -497,-46  -498,-36  -499,-26  -499,-16  -499,-6  -499,3  -499,13  -499,23  -498,33  -498,43  -497,53  -495,63  -494,73  -492,83  -491,93  -489,103  -487,112  -484,122  -482,132  -479,141  -476,151  -473,160  -470,170  -466,179  -462,188  -459,198  -454,207  -450,216  -446,225  -441,234  -436,243  -432,251  -426,260  -421,268  -416,277  -410,285  -404,293  -398,301  -392,309  -386,317  -379,325  -373,332  -366,339  -359,347  -352,354  -345,361  -338,368  -330,374  -323,381  -315,387  -307,394  -299,400  -291,406  -283,411  -275,417  -266,422  -258,428  -249,433  -241,438  -232,442  -223,447  -214,451  -205,455  -196,459  -186,463  -177,467  -168,470  -158,474  -149,477  -139,480  -130,482  -120,485  -110,487  -100,489  -91,491  -81,493  -71,494  -61,496  -51,497  -41,498  -31,499  -21,499  -11,499  -1,499  0,500 "/></g><g/></g></g><g><desc>Drawing</desc><g><g style="stroke:rgb(0,0,0);fill:none"><path style="fill:none" d="M  0,250  4,249  9,249  14,249  19,249  24,248  29,248  34,247  39,246  44,245  49,245  54,243  59,242  64,241  69,240  73,238  78,237  83,235  88,233  92,232  97,230  101,228  106,226  110,224  115,221  119,219  124,216  128,214  132,211  137,209  141,206  145,203  149,200  153,197  157,194  161,191  164,187  168,184  172,181  175,177  179,174  182,170  186,166  189,163  192,159  195,155  198,151  201,147  204,143  207,139  210,135  213,130  215,126  218,122  220,117  222,113  225,108  227,104  229,99  231,95  233,90  234,85  236,81  238,76  239,71  240,66  242,62  243,57  244,52  245,47  246,42  247,37  247,32  248,27  248,22  249,17  249,12  249,7  249,2  249,-2  249,-7  249,-12  249,-17  249,-22  248,-27  247,-32  247,-37  246,-42  245,-47  244,-51  243,-56  242,-61  240,-66  239,-71  238,-76  236,-80  234,-85  233,-90  231,-94  229,-99  227,-104  225,-108  222,-113  220,-117  218,-121  215,-126  213,-130  210,-134  207,-138  205,-143  202,-147  199,-151  196,-155  192,-158  189,-162  186,-166  183,-170  179,-173  176,-177  172,-180  168,-184  165,-187  161,-190  157,-194  153,-197  149,-200  145,-203  141,-206  137,-208  133,-211  128,-214  124,-216  120,-219  115,-221  111,-223  106,-226  102,-228  97,-230  93,-232  88,-233  83,-235  79,-237  74,-238  69,-240  64,-241  59,-242  54,-243  50,-244  45,-245  40,-246  35,-247  30,-248  25,-248  20,-249  15,-249  10,-249  5,-249  0,-249  -4,-249  -9,-249  -14,-249  -19,-249  -24,-248  -29,-248  -34,-247  -39,-246  -44,-246  -49,-245  -54,-244  -59,-242  -63,-241  -68,-240  -73,-238  -78,-237  -82,-235  -87,-234  -92,-232  -96,-230  -101,-228  -106,-226  -110,-224  -115,-221  -119,-219  -123,-217  -128,-214  -132,-212  -136,-209  -140,-206  -144,-203  -148,-200  -152,-197  -156,-194  -160,-191  -164,-188  -168,-184  -171,-181  -175,-178  -179,-174  -182,-170  -185,-167  -189,-163  -192,-159  -195,-155  -198,-151  -201,-147  -204,-143  -207,-139  -210,-135  -212,-131  -215,-126  -217,-122  -220,-118  -222,-113  -224,-109  -226,-104  -229,-100  -230,-95  -232,-90  -234,-86  -236,-81  -237,-76  -239,-72  -240,-67  -242,-62  -243,-57  -244,-52  -245,-47  -246,-42  -247,-37  -247,-33  -248,-28  -248,-23  -249,-18  -249,-13  -249,-8  -249,-3  -249,1  -249,6  -249,11  -249,16  -249,21  -248,26  -247,31  -247,36  -246,41  -245,46  -244,51  -243,56  -242,61  -241,66  -239,70  -238,75  -236,80  -235,85  -233,89  -231,94  -229,99  -227,103  -225,108  -223,112  -220,117  -218,121  -216,125  -213,130  -210,134  -208,138  -205,142  -202,146  -199,150  -196,154  -193,158  -189,162  -186,166  -183,169  -179,173  -176,177  -172,180  -169,184  -165,187  -161,190  -157,193  -153,197  -149,200  -145,203  -141,205  -137,208  -133,211  -129,214  -124,216  -120,219  -116,221  -111,223  -107,225  -102,227  -98,229  -93,231  -88,233  -84,235  -79,237  -74,238  -69,240  -65,241  -60,242  -55,243  -50,244  -45,245  -40,246  -35,247  -30,248  -25,248  -20,249  -15,249  -10,249  -5,249  0,249  0,250 "/></g><g/></g></g><g><desc>Drawing</desc><g><g style="stroke:rgb(0,0,0);fill:none"><path style="fill:none" d="M  0,4550  0,-4550 "/></g><g/></g></g><g><desc>Drawing</desc><g><g style="stroke:rgb(0,0,0);fill:none"><path style="fill:none" d="M "/></g><g/></g></g><g><desc>Drawing</desc><g><g style="stroke:rgb(0,0,0);fill:none"><path style="fill:none" d="M  4550,0  -4550,0 "/></g><g/></g></g><g><desc>Drawing</desc><g><g style="stroke:rgb(0,0,0);fill:none"><path style="fill:none" d="M "/></g><g/></g></g><g><desc>Drawing</desc><g><g style="stroke:rgb(0,0,0);fill:none"><path style="fill:none" d="M  -3217,3217  3217,-3217 "/></g><g/></g></g><g><desc>Drawing</desc><g><g style="stroke:rgb(0,0,0);fill:none"><path style="fill:none" d="M "/></g><g/></g></g><g><desc>Drawing</desc><g><g style="stroke:rgb(0,0,0);fill:none"><path style="fill:none" d="M  3217,3217  -3217,-3217 "/></g><g/></g></g></g></svg>